<svg id="Lag_211" data-name="Lag 1" xmlns="http://www.w3.org/2000/svg" xmlns:xlink="http://www.w3.org/1999/xlink" viewBox="0 0 829.8 829.8"><defs><style>.cls-1{fill:url(#Ikke-navngivet_forløb);}.cls-2{fill:#161616;}.cls-3{fill:#da2c38;}.cls-4{fill:#3a7d44;}.cls-5{fill:#e2e2e2;}.cls-6{fill:none;}.cls-7{fill:#b2b2b2;}</style><radialGradient id="Ikke-navngivet_forløb" cx="500" cy="505.2" r="414.9" gradientTransform="matrix(1, 0, 0, -1, -85.1, 920.1)" gradientUnits="userSpaceOnUse"><stop offset="0"/><stop offset="1" stop-color="#353535"/></radialGradient></defs><g id="spinning-part"><circle class="cls-1" cx="414.9" cy="414.9" r="414.9"/><path class="cls-2" d="M788.6,326l70.7-38.7A416.7,416.7,0,0,0,743.9,159.1L698,225.4A334.1,334.1,0,0,1,788.6,326Z" transform="translate(-85.1 -79.9)"/><path class="cls-3" d="M695,223.2l48.8-64.1A412.69,412.69,0,0,0,586.2,88.9l-14.9,79.2A331.35,331.35,0,0,1,695,223.2Z" transform="translate(-85.1 -79.9)"/><path class="cls-4" d="M500,160.4a335.78,335.78,0,0,1,67.7,6.9l18.6-78.4a418.26,418.26,0,0,0-172.6,0l18.6,78.4A335.78,335.78,0,0,1,500,160.4Z" transform="translate(-85.1 -79.9)"/><path class="cls-2" d="M428.6,168.1,413.7,88.9a413.37,413.37,0,0,0-157.6,70.2l48.8,64.1A332.77,332.77,0,0,1,428.6,168.1Z" transform="translate(-85.1 -79.9)"/><path class="cls-3" d="M302,225.4l-45.8-66.3A415.45,415.45,0,0,0,140.8,287.3L211.5,326A333.77,333.77,0,0,1,302,225.4Z" transform="translate(-85.1 -79.9)"/><path class="cls-2" d="M209.5,329.2l-68.8-41.9A412.38,412.38,0,0,0,87.4,451.4l80.3,6.6A333,333,0,0,1,209.5,329.2Z" transform="translate(-85.1 -79.9)"/><path class="cls-3" d="M165.7,494.8c0-11.2.6-22.2,1.6-33L87.4,451.5a419.42,419.42,0,0,0,18,171.5l76-26.7A333.66,333.66,0,0,1,165.7,494.8Z" transform="translate(-85.1 -79.9)"/><path class="cls-2" d="M182.6,599.9,105.4,623a415.92,415.92,0,0,0,86.3,149.3L250.3,717A332.69,332.69,0,0,1,182.6,599.9Z" transform="translate(-85.1 -79.9)"/><path class="cls-3" d="M252.8,719.9l-61.1,52.5A415,415,0,0,0,331.2,873.8l31.1-74.3A335.93,335.93,0,0,1,252.8,719.9Z" transform="translate(-85.1 -79.9)"/><path class="cls-2" d="M365.7,801l-34.5,72.8a412.69,412.69,0,0,0,168.7,35.8L498,829.1A334.3,334.3,0,0,1,365.7,801Z" transform="translate(-85.1 -79.9)"/><path class="cls-3" d="M501.9,829.1,500,909.6a412.69,412.69,0,0,0,168.7-35.8L634.3,801A334,334,0,0,1,501.9,829.1Z" transform="translate(-85.1 -79.9)"/><path class="cls-2" d="M637.7,799.5l31.1,74.3A417.38,417.38,0,0,0,808.3,772.4l-61.1-52.5A335.93,335.93,0,0,1,637.7,799.5Z" transform="translate(-85.1 -79.9)"/><path class="cls-3" d="M817.4,599.9a334.23,334.23,0,0,1-67.8,117.2l58.6,55.3a413,413,0,0,0,86.3-149.3Z" transform="translate(-85.1 -79.9)"/><path class="cls-2" d="M912.6,451.4l-79.9,10.3a328.47,328.47,0,0,1,1.6,33,334.79,334.79,0,0,1-15.7,101.6l76,26.7a419.9,419.9,0,0,0,18-171.6Z" transform="translate(-85.1 -79.9)"/><path class="cls-3" d="M832.3,458l80.3-6.6a412.38,412.38,0,0,0-53.3-164.1l-68.8,41.9A333,333,0,0,1,832.3,458Z" transform="translate(-85.1 -79.9)"/><g id="handle"><circle class="cls-5" cx="414.9" cy="284.7" r="10.3"/><line class="cls-6" x1="414.9" y1="284.7" x2="414.9" y2="414.9"/><path class="cls-5" d="M500.9,364.6c5.2,8.8,8,22.6,6.2,32.6-1.1,5.4-3.8,10.9-4.4,16.3a41.27,41.27,0,0,0,1.9,16.3,76.26,76.26,0,0,1,3.4,16.3,81.46,81.46,0,0,1-1.3,32.6,70.87,70.87,0,0,1-5.9,16.3h-1.7a69.23,69.23,0,0,1-5.9-16.3,91.64,91.64,0,0,1-2.4-16.3c-.3-6.7.8-13.6,1.5-20.3.8-6.9,3.8-13.5,4.7-20.3a36.57,36.57,0,0,0,.1-8.1c-.5-5.4-3.2-10.9-4.4-16.3a27.64,27.64,0,0,1-.5-8.1c.6-8.5,2.3-16.9,6.7-24.4.3-.3,2-.3,2-.3Z" transform="translate(-85.1 -79.9)"/><circle class="cls-5" cx="414.9" cy="545.1" r="10.3"/><line class="cls-6" x1="414.9" y1="545.1" x2="414.9" y2="414.9"/><path class="cls-5" d="M499.2,625c-5.2-8.8-8-22.6-6.2-32.6,1.1-5.4,3.8-10.9,4.4-16.3a41.27,41.27,0,0,0-1.9-16.3,76.26,76.26,0,0,1-3.4-16.3,81.46,81.46,0,0,1,1.3-32.6,70.87,70.87,0,0,1,5.9-16.3H501a69.23,69.23,0,0,1,5.9,16.3,91.64,91.64,0,0,1,2.4,16.3c.3,6.7-.8,13.6-1.5,20.3-.8,6.9-3.8,13.5-4.7,20.3a36.57,36.57,0,0,0-.1,8.1c.5,5.4,3.2,10.9,4.4,16.3a27.64,27.64,0,0,1,.5,8.1c-.6,8.5-2.3,16.9-6.7,24.4-.3.3-2,.3-2,.3Z" transform="translate(-85.1 -79.9)"/><circle class="cls-5" cx="284.7" cy="414.9" r="10.3"/><line class="cls-6" x1="284.7" y1="414.9" x2="414.9" y2="414.9"/><path class="cls-5" d="M369.8,493.9c8.8-5.2,22.6-8,32.6-6.2,5.4,1.1,10.9,3.8,16.3,4.4a41.27,41.27,0,0,0,16.3-1.9,76.26,76.26,0,0,1,16.3-3.4,81.46,81.46,0,0,1,32.6,1.3,70.87,70.87,0,0,1,16.3,5.9v1.7a69.23,69.23,0,0,1-16.3,5.9,91.64,91.64,0,0,1-16.3,2.4c-6.7.3-13.6-.8-20.3-1.5-6.9-.8-13.5-3.8-20.3-4.7a36.57,36.57,0,0,0-8.1-.1c-5.4.5-10.9,3.2-16.3,4.4a27.64,27.64,0,0,1-8.1.5c-8.5-.6-16.9-2.3-24.4-6.7-.3-.3-.3-2-.3-2Z" transform="translate(-85.1 -79.9)"/><circle class="cls-5" cx="545.2" cy="414.9" r="10.3"/><line class="cls-6" x1="545.2" y1="414.9" x2="414.9" y2="414.9"/><path class="cls-5" d="M630.3,495.6c-8.8,5.2-22.6,8-32.6,6.2-5.4-1.1-10.9-3.8-16.3-4.4a41.27,41.27,0,0,0-16.3,1.9,76.26,76.26,0,0,1-16.3,3.4,81.46,81.46,0,0,1-32.6-1.3,70.87,70.87,0,0,1-16.3-5.9v-1.7a69.23,69.23,0,0,1,16.3-5.9,91.64,91.64,0,0,1,16.3-2.4c6.7-.3,13.6.8,20.3,1.5,6.9.8,13.5,3.8,20.3,4.7a36.57,36.57,0,0,0,8.1.1c5.4-.5,10.9-3.2,16.3-4.4a27.64,27.64,0,0,1,8.1-.5c8.5.6,16.9,2.3,24.4,6.7.3.3.3,2,.3,2Z" transform="translate(-85.1 -79.9)"/><circle class="cls-7" cx="500.1" cy="494.8" r="15.7" transform="translate(-153.52 829.28) rotate(-80.78)"/></g></g></svg>